<?xml version="1.0" standalone="no"?><?xml-stylesheet type="text/css" href="https://wps.processon.com/themes/default/wps/mind/icons/icons.css" ?><!DOCTYPE svg PUBLIC "-//W3C//DTD SVG 1.1//EN" "http://www.w3.org/Graphics/SVG/1.1/DTD/svg11.dtd"><svg xmlns="http://www.w3.org/2000/svg" xlink="http://www.w3.org/1999/xlink" id="mind-svg-view-con" version="1.1" width="1279.703125px" height="614px"><defs></defs><g id="svgbackgroundid"><defs></defs><rect x="0" y="0" width="1279.703125" height="614" fill="#ffffff"></rect></g><g transform="translate(-9374.296875, -9628)" id="sdjakdjak4"><defs></defs><g class="svg-topic-con" transform="translate(0.5,0.5)"><path part="right" sub="true" id="line_b723dd0496cd" d="M 10000 9934.5 C 10000 9934.5 10010 9934.5 10154 9934.5" stroke="#434b54" fill="none" stroke-width="2"></path><path part="left" sub="true" id="line_ec24634ac457" d="M 10000 9934.5 C 10000 9934.5 9990 9765.5 9846 9765.5" stroke="#434b54" fill="none" stroke-width="2"></path><path part="left" sub="true" id="line_bb2baf33b805" d="M 10000 9934.5 C 10000 9934.5 9990 10057.5 9846 10057.5" stroke="#434b54" fill="none" stroke-width="2"></path></g><g class="svg-connection-con" transform="translate(0.5,0.5)"></g><g class="svg-freesums-con" transform="translate(0.5,0.5)"></g><g class="svg-freebos-con" transform="translate(0.5,0.5)"></g></g><g id="b723dd0496cd"><rect x="779.703125" y="282.5" rx="5px" ry="5px" width="125" height="48" style="fill: #dbe2e3; stroke:#dbe2e3;stroke-width:0;"></rect><g><text text-anchor="start" align="top" anchor="start" font-size="17px" font-weight="normal" fill="rgb(67, 75, 84)" style="font-size:17px;font-family:微软雅黑;color:#434b54;font-style:normal;text-align:left;font-weight:normal;border-color:#dbe2e3;"><tspan x="799.703125" y="313.9"><tspan>行为型模式</tspan></tspan></text></g></g><g id="024d0819d89d"><rect x="932.703125" y="58" rx="1px" ry="1px" width="299" height="27" style="fill: transparent; stroke:none;"></rect><g><text text-anchor="start" align="top" anchor="start" font-size="13px" font-weight="normal" fill="rgb(67, 75, 84)" style="font-size:13px;font-family:微软雅黑;color:#434b54;font-style:normal;text-align:left;font-weight:normal;"><tspan x="940.703125" y="76.6"><tspan>1. 模板方法模式 （Template Method Pattern）</tspan></tspan></text></g></g><g id="59cffb16bce6"><rect x="932.703125" y="105" rx="1px" ry="1px" width="241" height="27" style="fill: transparent; stroke:none;"></rect><g><text text-anchor="start" align="top" anchor="start" font-size="13px" font-weight="normal" fill="rgb(67, 75, 84)" style="font-size:13px;font-family:微软雅黑;color:#434b54;font-style:normal;text-align:left;font-weight:normal;"><tspan x="940.703125" y="123.6"><tspan>2. 解释器模式 （Interpreter Pattern）</tspan></tspan></text></g></g><g id="e3d25213e173"><rect x="932.703125" y="152" rx="1px" ry="1px" width="231" height="27" style="fill: transparent; stroke:none;"></rect><g><text text-anchor="start" align="top" anchor="start" font-size="13px" font-weight="normal" fill="rgb(67, 75, 84)" style="font-size:13px;font-family:微软雅黑;color:#434b54;font-style:normal;text-align:left;font-weight:normal;"><tspan x="940.703125" y="170.60000000000002"><tspan>3. 观察者模式 （Observer Pattern）</tspan></tspan></text></g></g><g id="f99ee455d695"><rect x="932.703125" y="199" rx="1px" ry="1px" width="193" height="27" style="fill: transparent; stroke:none;"></rect><g><text text-anchor="start" align="top" anchor="start" font-size="13px" font-weight="normal" fill="rgb(67, 75, 84)" style="font-size:13px;font-family:微软雅黑;color:#434b54;font-style:normal;text-align:left;font-weight:normal;"><tspan x="940.703125" y="217.60000000000002"><tspan>4. 状态模式 （State Pattern）</tspan></tspan></text></g></g><g id="2db63aba20c4"><rect x="932.703125" y="246" rx="1px" ry="1px" width="213" height="27" style="fill: transparent; stroke:none;"></rect><g><text text-anchor="start" align="top" anchor="start" font-size="13px" font-weight="normal" fill="rgb(67, 75, 84)" style="font-size:13px;font-family:微软雅黑;color:#434b54;font-style:normal;text-align:left;font-weight:normal;"><tspan x="940.703125" y="264.6"><tspan>5. 策略模式 （Strategy Pattern）</tspan></tspan></text></g></g><g id="3134b8a7f453"><rect x="932.703125" y="293" rx="1px" ry="1px" width="317" height="27" style="fill: transparent; stroke:none;"></rect><g><text text-anchor="start" align="top" anchor="start" font-size="13px" font-weight="normal" fill="rgb(67, 75, 84)" style="font-size:13px;font-family:微软雅黑;color:#434b54;font-style:normal;text-align:left;font-weight:normal;"><tspan x="940.703125" y="311.6"><tspan>6. 责任链模式 （Chain of Responsibility Pattern）</tspan></tspan></text></g></g><g id="11c1d5c66427"><rect x="932.703125" y="340" rx="1px" ry="1px" width="226" height="27" style="fill: transparent; stroke:none;"></rect><g><text text-anchor="start" align="top" anchor="start" font-size="13px" font-weight="normal" fill="rgb(67, 75, 84)" style="font-size:13px;font-family:微软雅黑;color:#434b54;font-style:normal;text-align:left;font-weight:normal;"><tspan x="940.703125" y="358.6"><tspan>7. 命令模式 （Command Pattern）</tspan></tspan></text></g></g><g id="ad219d9a26b1"><rect x="932.703125" y="387" rx="1px" ry="1px" width="214" height="27" style="fill: transparent; stroke:none;"></rect><g><text text-anchor="start" align="top" anchor="start" font-size="13px" font-weight="normal" fill="rgb(67, 75, 84)" style="font-size:13px;font-family:微软雅黑;color:#434b54;font-style:normal;text-align:left;font-weight:normal;"><tspan x="940.703125" y="405.6"><tspan>8. 访问者模式 （Visitor Pattern）</tspan></tspan></text></g></g><g id="84fabc90d327"><rect x="932.703125" y="434" rx="1px" ry="1px" width="232" height="27" style="fill: transparent; stroke:none;"></rect><g><text text-anchor="start" align="top" anchor="start" font-size="13px" font-weight="normal" fill="rgb(67, 75, 84)" style="font-size:13px;font-family:微软雅黑;color:#434b54;font-style:normal;text-align:left;font-weight:normal;"><tspan x="940.703125" y="452.6"><tspan>9. 调停者模式 （Mediator Pattern）</tspan></tspan></text></g></g><g id="80f7806735f4"><rect x="932.703125" y="481" rx="1px" ry="1px" width="243" height="27" style="fill: transparent; stroke:none;"></rect><g><text text-anchor="start" align="top" anchor="start" font-size="13px" font-weight="normal" fill="rgb(67, 75, 84)" style="font-size:13px;font-family:微软雅黑;color:#434b54;font-style:normal;text-align:left;font-weight:normal;"><tspan x="940.703125" y="499.6"><tspan>10. 备忘录模式 （Memento Pattern）</tspan></tspan></text></g></g><g id="fa4f968cdee4"><rect x="932.703125" y="528" rx="1px" ry="1px" width="228" height="27" style="fill: transparent; stroke:none;"></rect><g><text text-anchor="start" align="top" anchor="start" font-size="13px" font-weight="normal" fill="rgb(67, 75, 84)" style="font-size:13px;font-family:微软雅黑;color:#434b54;font-style:normal;text-align:left;font-weight:normal;"><tspan x="940.703125" y="546.5999999999999"><tspan>11. 迭代器模式 （Iterator Pattern）</tspan></tspan></text></g></g><g id="ffc8834088ae"><rect x="94.09375" y="275" rx="1px" ry="1px" width="225" height="27" style="fill: transparent; stroke:none;"></rect><g><text text-anchor="start" align="top" anchor="start" font-size="13px" font-weight="normal" fill="rgb(67, 75, 84)" style="font-size:13px;font-family:微软雅黑;color:#434b54;font-style:normal;text-align:left;font-weight:normal;"><tspan x="102.09375" y="293.6"><tspan>1. 适配器模式 （Adapter Pattern）</tspan></tspan></text></g></g><g id="8ad4ab1c5135"><rect x="113.734375" y="322" rx="1px" ry="1px" width="205" height="27" style="fill: transparent; stroke:none;"></rect><g><text text-anchor="start" align="top" anchor="start" font-size="13px" font-weight="normal" fill="rgb(67, 75, 84)" style="font-size:13px;font-family:微软雅黑;color:#434b54;font-style:normal;text-align:left;font-weight:normal;"><tspan x="121.734375" y="340.6"><tspan>2. 外观模式 （Façade Pattern）</tspan></tspan></text></g></g><g id="da93cbda71e7"><rect x="122.578125" y="369" rx="1px" ry="1px" width="196" height="27" style="fill: transparent; stroke:none;"></rect><g><text text-anchor="start" align="top" anchor="start" font-size="13px" font-weight="normal" fill="rgb(67, 75, 84)" style="font-size:13px;font-family:微软雅黑;color:#434b54;font-style:normal;text-align:left;font-weight:normal;"><tspan x="130.578125" y="387.6"><tspan>3. 代理模式 （Proxy Pattern）</tspan></tspan></text></g></g><g id="8057d70f93df"><rect x="81.9375" y="416" rx="1px" ry="1px" width="237" height="27" style="fill: transparent; stroke:none;"></rect><g><text text-anchor="start" align="top" anchor="start" font-size="13px" font-weight="normal" fill="rgb(67, 75, 84)" style="font-size:13px;font-family:微软雅黑;color:#434b54;font-style:normal;text-align:left;font-weight:normal;"><tspan x="89.9375" y="434.6"><tspan>4. 装饰器模式 （Decorator Pattern）</tspan></tspan></text></g></g><g id="b9c9c75ef3cf"><rect x="89.828125" y="463" rx="1px" ry="1px" width="229" height="27" style="fill: transparent; stroke:none;"></rect><g><text text-anchor="start" align="top" anchor="start" font-size="13px" font-weight="normal" fill="rgb(67, 75, 84)" style="font-size:13px;font-family:微软雅黑;color:#434b54;font-style:normal;text-align:left;font-weight:normal;"><tspan x="97.828125" y="481.6"><tspan>5. 组合模式 （Composite Pattern）</tspan></tspan></text></g></g><g id="9ba0c1dcdb71"><rect x="97.71875" y="510" rx="1px" ry="1px" width="221" height="27" style="fill: transparent; stroke:none;"></rect><g><text text-anchor="start" align="top" anchor="start" font-size="13px" font-weight="normal" fill="rgb(67, 75, 84)" style="font-size:13px;font-family:微软雅黑;color:#434b54;font-style:normal;text-align:left;font-weight:normal;"><tspan x="105.71875" y="528.6"><tspan>6. 享元模式 （Flyweight Pattern）</tspan></tspan></text></g></g><g id="9f7f83378d04"><rect x="116.640625" y="557" rx="1px" ry="1px" width="202" height="27" style="fill: transparent; stroke:none;"></rect><g><text text-anchor="start" align="top" anchor="start" font-size="13px" font-weight="normal" fill="rgb(67, 75, 84)" style="font-size:13px;font-family:微软雅黑;color:#434b54;font-style:normal;text-align:left;font-weight:normal;"><tspan x="124.640625" y="575.5999999999999"><tspan>7. 桥接模式 （Bridge Pattern）</tspan></tspan></text></g></g><g id="bb2baf33b805"><rect x="346.703125" y="405.5" rx="5px" ry="5px" width="125" height="48" style="fill: #dbe2e3; stroke:#dbe2e3;stroke-width:0;"></rect><g><text text-anchor="start" align="top" anchor="start" font-size="17px" font-weight="normal" fill="rgb(67, 75, 84)" style="font-size:17px;font-family:微软雅黑;color:#434b54;font-style:normal;text-align:left;font-weight:normal;border-color:#dbe2e3;"><tspan x="366.703125" y="436.9"><tspan>结构型模式</tspan></tspan></text></g></g><g id="a5049399bb69"><rect x="32.3125" y="30" rx="1px" ry="1px" width="287" height="27" style="fill: transparent; stroke:none;"></rect><g><text text-anchor="start" align="top" anchor="start" font-size="13px" font-weight="normal" fill="rgb(67, 75, 84)" style="font-size:13px;font-family:微软雅黑;color:#434b54;font-style:normal;text-align:left;font-weight:normal;"><tspan x="40.3125" y="48.6"><tspan>1. 工厂方法模式 （Factory Method Pattern）</tspan></tspan></text></g></g><g id="7c9cf6fc4bd0"><rect x="30" y="77" rx="1px" ry="1px" width="289" height="27" style="fill: transparent; stroke:none;"></rect><g><text text-anchor="start" align="top" anchor="start" font-size="13px" font-weight="normal" fill="rgb(67, 75, 84)" style="font-size:13px;font-family:微软雅黑;color:#434b54;font-style:normal;text-align:left;font-weight:normal;"><tspan x="38" y="95.6"><tspan>2. 抽象工厂模式 （Abstract Factory Pattern）</tspan></tspan></text></g></g><g id="f614c07f238c"><rect x="100.484375" y="124" rx="1px" ry="1px" width="219" height="27" style="fill: transparent; stroke:none;"></rect><g><text text-anchor="start" align="top" anchor="start" font-size="13px" font-weight="normal" fill="rgb(67, 75, 84)" style="font-size:13px;font-family:微软雅黑;color:#434b54;font-style:normal;text-align:left;font-weight:normal;"><tspan x="108.484375" y="142.6"><tspan>3. 建造者模式 （Builder Pattern）</tspan></tspan></text></g></g><g id="da9f5693e020"><rect x="95.53125" y="171" rx="1px" ry="1px" width="223" height="27" style="fill: transparent; stroke:none;"></rect><g><text text-anchor="start" align="top" anchor="start" font-size="13px" font-weight="normal" fill="rgb(67, 75, 84)" style="font-size:13px;font-family:微软雅黑;color:#434b54;font-style:normal;text-align:left;font-weight:normal;"><tspan x="103.53125" y="189.60000000000002"><tspan>4. 原型模式 （Prototype Pattern）</tspan></tspan></text></g></g><g id="7289ed91ca97"><rect x="97.984375" y="218" rx="1px" ry="1px" width="221" height="27" style="fill: transparent; stroke:none;"></rect><g><text text-anchor="start" align="top" anchor="start" font-size="13px" font-weight="normal" fill="rgb(67, 75, 84)" style="font-size:13px;font-family:微软雅黑;color:#434b54;font-style:normal;text-align:left;font-weight:normal;"><tspan x="105.984375" y="236.60000000000002"><tspan>5. 单例模式 （Singleton Pattern）</tspan></tspan></text></g></g><g id="ec24634ac457"><rect x="346.703125" y="113.5" rx="5px" ry="5px" width="125" height="48" style="fill: #dbe2e3; stroke:#dbe2e3;stroke-width:0;"></rect><g><text text-anchor="start" align="top" anchor="start" font-size="17px" font-weight="normal" fill="rgb(67, 75, 84)" style="font-size:17px;font-family:微软雅黑;color:#434b54;font-style:normal;text-align:left;font-weight:normal;border-color:#dbe2e3;"><tspan x="366.703125" y="144.9"><tspan>创建型模式</tspan></tspan></text></g></g><g transform="translate(779.703125, 58)" id="sdjakdjak0"><g id="subline_b723dd0496cd" transform="translate(0.5,0.5)"><path id="line_024d0819d89d" d="M 125 248.5 L 141 248.5 C 149 248.5 133 13.5 153 13.5" p="b723dd0496cd" stroke="#434b54" stroke-linecap="round" fill="none" stroke-width="1"></path><path id="line_59cffb16bce6" d="M 125 248.5 L 141 248.5 C 149 248.5 133 60.5 153 60.5" p="b723dd0496cd" stroke="#434b54" stroke-linecap="round" fill="none" stroke-width="1"></path><path id="line_e3d25213e173" d="M 125 248.5 L 141 248.5 C 149 248.5 133 107.5 153 107.5" p="b723dd0496cd" stroke="#434b54" stroke-linecap="round" fill="none" stroke-width="1"></path><path id="line_f99ee455d695" d="M 125 248.5 L 141 248.5 C 149 248.5 133 154.5 153 154.5" p="b723dd0496cd" stroke="#434b54" stroke-linecap="round" fill="none" stroke-width="1"></path><path id="line_2db63aba20c4" d="M 125 248.5 L 141 248.5 C 149 248.5 133 201.5 153 201.5" p="b723dd0496cd" stroke="#434b54" stroke-linecap="round" fill="none" stroke-width="1"></path><path id="line_3134b8a7f453" d="M 125 248.5 L 141 248.5 C 149 248.5 133 248.5 153 248.5" p="b723dd0496cd" stroke="#434b54" stroke-linecap="round" fill="none" stroke-width="1"></path><path id="line_11c1d5c66427" d="M 125 248.5 L 141 248.5 C 149 248.5 133 295.5 153 295.5" p="b723dd0496cd" stroke="#434b54" stroke-linecap="round" fill="none" stroke-width="1"></path><path id="line_ad219d9a26b1" d="M 125 248.5 L 141 248.5 C 149 248.5 133 342.5 153 342.5" p="b723dd0496cd" stroke="#434b54" stroke-linecap="round" fill="none" stroke-width="1"></path><path id="line_84fabc90d327" d="M 125 248.5 L 141 248.5 C 149 248.5 133 389.5 153 389.5" p="b723dd0496cd" stroke="#434b54" stroke-linecap="round" fill="none" stroke-width="1"></path><path id="line_80f7806735f4" d="M 125 248.5 L 141 248.5 C 149 248.5 133 436.5 153 436.5" p="b723dd0496cd" stroke="#434b54" stroke-linecap="round" fill="none" stroke-width="1"></path><path id="line_fa4f968cdee4" d="M 125 248.5 L 141 248.5 C 149 248.5 133 483.5 153 483.5" p="b723dd0496cd" stroke="#434b54" stroke-linecap="round" fill="none" stroke-width="1"></path></g><g transform="translate(0.5,0.5)"></g><g class="svg-summary-con" transform="translate(0.5,0.5)"></g><g class="svg-boundary-con" transform="translate(0.5,0.5)"></g></g><g transform="translate(81.9375, 275)" id="sdjakdjak1"><g id="subline_bb2baf33b805" transform="translate(0.5,0.5)"><path id="line_ffc8834088ae" d="M 264.765625 154.5 L 248.765625 154.5 C 244.765625 154.5 254.765625 13.5 236.765625 13.5" p="bb2baf33b805" stroke="#434b54" stroke-linecap="round" fill="none" stroke-width="1"></path><path id="line_8ad4ab1c5135" d="M 264.765625 154.5 L 248.765625 154.5 C 244.765625 154.5 254.765625 60.5 236.765625 60.5" p="bb2baf33b805" stroke="#434b54" stroke-linecap="round" fill="none" stroke-width="1"></path><path id="line_da93cbda71e7" d="M 264.765625 154.5 L 248.765625 154.5 C 244.765625 154.5 254.765625 107.5 236.765625 107.5" p="bb2baf33b805" stroke="#434b54" stroke-linecap="round" fill="none" stroke-width="1"></path><path id="line_8057d70f93df" d="M 264.765625 154.5 L 248.765625 154.5 C 244.765625 154.5 254.765625 154.5 236.765625 154.5" p="bb2baf33b805" stroke="#434b54" stroke-linecap="round" fill="none" stroke-width="1"></path><path id="line_b9c9c75ef3cf" d="M 264.765625 154.5 L 248.765625 154.5 C 244.765625 154.5 254.765625 201.5 236.765625 201.5" p="bb2baf33b805" stroke="#434b54" stroke-linecap="round" fill="none" stroke-width="1"></path><path id="line_9ba0c1dcdb71" d="M 264.765625 154.5 L 248.765625 154.5 C 244.765625 154.5 254.765625 248.5 236.765625 248.5" p="bb2baf33b805" stroke="#434b54" stroke-linecap="round" fill="none" stroke-width="1"></path><path id="line_9f7f83378d04" d="M 264.765625 154.5 L 248.765625 154.5 C 244.765625 154.5 254.765625 295.5 236.765625 295.5" p="bb2baf33b805" stroke="#434b54" stroke-linecap="round" fill="none" stroke-width="1"></path></g><g transform="translate(0.5,0.5)"></g><g class="svg-summary-con" transform="translate(0.5,0.5)"></g><g class="svg-boundary-con" transform="translate(0.5,0.5)"></g></g><g transform="translate(30, 30)" id="sdjakdjak2"><g id="subline_ec24634ac457" transform="translate(0.5,0.5)"><path id="line_a5049399bb69" d="M 316.703125 107.5 L 300.703125 107.5 C 296.703125 107.5 306.703125 13.5 288.703125 13.5" p="ec24634ac457" stroke="#434b54" stroke-linecap="round" fill="none" stroke-width="1"></path><path id="line_7c9cf6fc4bd0" d="M 316.703125 107.5 L 300.703125 107.5 C 296.703125 107.5 306.703125 60.5 288.703125 60.5" p="ec24634ac457" stroke="#434b54" stroke-linecap="round" fill="none" stroke-width="1"></path><path id="line_f614c07f238c" d="M 316.703125 107.5 L 300.703125 107.5 C 296.703125 107.5 306.703125 107.5 288.703125 107.5" p="ec24634ac457" stroke="#434b54" stroke-linecap="round" fill="none" stroke-width="1"></path><path id="line_da9f5693e020" d="M 316.703125 107.5 L 300.703125 107.5 C 296.703125 107.5 306.703125 154.5 288.703125 154.5" p="ec24634ac457" stroke="#434b54" stroke-linecap="round" fill="none" stroke-width="1"></path><path id="line_7289ed91ca97" d="M 316.703125 107.5 L 300.703125 107.5 C 296.703125 107.5 306.703125 201.5 288.703125 201.5" p="ec24634ac457" stroke="#434b54" stroke-linecap="round" fill="none" stroke-width="1"></path></g><g transform="translate(0.5,0.5)"></g><g class="svg-summary-con" transform="translate(0.5,0.5)"></g><g class="svg-boundary-con" transform="translate(0.5,0.5)"></g></g><g transform="translate(551.703125, 271)" id="sdjakdjak3"><g id="subline_root" transform="translate(0.5,0.5)"></g><g transform="translate(0.5,0.5)"></g><g class="svg-summary-con" transform="translate(0.5,0.5)"></g><g class="svg-boundary-con" transform="translate(0.5,0.5)"></g></g><g id="root"><rect x="551.703125" y="271" rx="5px" ry="5px" width="148" height="71" style="fill: #2c79c1; stroke:#ff535c;"></rect><g><text text-anchor="start" align="top" anchor="start" font-size="24px" font-weight="bold" fill="rgb(255, 255, 255)" style="font-size:24px;font-family:微软雅黑;color:#fff;font-style:normal;text-align:left;font-weight:bold;background-color:#2c79c1;border-color:#ff535c;"><tspan x="577.703125" y="316.79999999999995"><tspan>设计模式</tspan></tspan></text></g></g></svg>